<svg width="253" height="79" viewBox="0 0 253 79" fill="none" xmlns="http://www.w3.org/2000/svg">
<path d="M11.3548 63.046C9.30549 62.8913 7.95215 62.3887 7.29482 61.538C6.67615 60.6873 6.36682 59.624 6.36682 58.348C6.36682 56.9173 6.61815 55.1967 7.12082 53.186C7.62349 51.1753 8.28082 49.0293 9.09282 46.748C9.90482 44.4667 10.7942 42.2047 11.7608 39.962C11.3355 40.0007 10.6588 40.0587 9.73082 40.136C8.84149 40.2133 7.91349 40.31 6.94682 40.426C6.01882 40.5033 5.26482 40.6 4.68482 40.716C4.80082 39.5173 5.24549 38.5893 6.01882 37.932C6.83082 37.236 7.85549 36.7333 9.09282 36.424C10.3688 36.1147 11.7415 35.9407 13.2108 35.902C14.2162 33.118 15.2408 30.4113 16.2848 27.782C17.3675 25.114 18.4502 22.678 19.5328 20.474C19.3008 20.4353 19.0302 20.416 18.7208 20.416C18.4115 20.3773 17.9862 20.358 17.4448 20.358C15.0862 20.358 13.2495 20.6093 11.9348 21.112C10.6588 21.6147 9.76949 22.33 9.26682 23.258C8.80282 24.186 8.57082 25.3267 8.57082 26.68C8.57082 27.6467 8.66749 28.536 8.86082 29.348C9.05415 30.1213 9.34415 30.972 9.73082 31.9C7.91349 31.5907 6.61815 31.0107 5.84482 30.16C5.07149 29.2707 4.68482 28.1687 4.68482 26.854C4.68482 24.8433 5.41949 23.0647 6.88882 21.518C8.39682 19.9713 10.4075 18.7533 12.9208 17.864C15.4728 16.9747 18.3342 16.53 21.5048 16.53C23.5542 16.53 25.6035 16.6653 27.6528 16.936C29.7022 17.2067 31.6162 17.342 33.3948 17.342C34.3615 17.342 35.2895 17.284 36.1788 17.168C37.0682 17.0133 38.0928 16.7813 39.2528 16.472C37.3968 18.5213 35.8695 19.894 34.6708 20.59C33.5108 21.286 32.3702 21.634 31.2488 21.634C30.3208 21.634 29.1222 21.518 27.6528 21.286C26.1835 21.0153 24.5982 20.822 22.8968 20.706C22.3942 21.9433 21.8528 23.374 21.2728 24.998C20.6928 26.622 20.0935 28.362 19.4748 30.218C18.8948 32.074 18.2955 33.988 17.6768 35.96C19.6875 36.1147 21.5048 36.2887 23.1288 36.482C24.7528 36.6753 26.5508 36.8107 28.5228 36.888C28.0588 37.5067 27.5755 38.0093 27.0728 38.396C26.6088 38.744 25.9708 38.9953 25.1588 39.15C24.3855 39.3047 23.3028 39.4207 21.9108 39.498C20.5575 39.5753 18.7788 39.6333 16.5748 39.672C16.2655 40.832 15.9368 42.0113 15.5888 43.21C15.2408 44.4087 14.9315 45.4333 14.6608 46.284C14.4288 47.1347 14.2742 47.6567 14.1968 47.85C13.1142 51.562 12.3602 54.5973 11.9348 56.956C11.5482 59.276 11.3548 61.306 11.3548 63.046ZM35.1579 59.508C33.7273 59.508 32.5673 59.1213 31.6779 58.348C30.7886 57.6133 30.3439 56.608 30.3439 55.332C30.3439 54.2493 30.6146 53.0893 31.1559 51.852C31.6973 50.6147 32.2386 49.3967 32.7799 48.198C33.3599 46.9993 33.6499 45.936 33.6499 45.008C33.6499 44.1187 33.3599 43.384 32.7799 42.804C32.1999 42.1853 31.5233 41.6827 30.7499 41.296C29.8993 43.4227 28.9326 45.4913 27.8499 47.502C26.8059 49.474 25.9553 51.0207 25.2979 52.142L24.4279 50.46C24.9693 49.4547 25.6846 48.024 26.5739 46.168C27.4633 44.312 28.3139 42.2433 29.1259 39.962C28.7393 39.5753 28.5459 39.0533 28.5459 38.396C28.5459 37.3907 28.8553 36.4433 29.4739 35.554C30.0926 34.6647 30.6919 34.22 31.2719 34.22C31.7359 34.22 32.0646 34.4907 32.2579 35.032C32.4899 35.5347 32.6059 35.8827 32.6059 36.076C32.6059 36.2693 32.5093 36.6173 32.3159 37.12C32.1613 37.6227 32.0453 37.99 31.9679 38.222C32.0066 38.6473 32.3353 39.0727 32.9539 39.498C33.6113 39.8847 34.3459 40.3487 35.1579 40.89C35.9699 41.4313 36.6853 42.108 37.3039 42.92C37.9226 43.732 38.2319 44.7567 38.2319 45.994C38.2319 47.1153 37.9806 48.256 37.4779 49.416C36.9753 50.576 36.4726 51.6587 35.9699 52.664C35.4673 53.6693 35.2159 54.5393 35.2159 55.274C35.2159 55.8153 35.3513 56.1827 35.6219 56.376C35.9313 56.5307 36.2793 56.608 36.6659 56.608C37.5939 56.608 38.5606 56.3373 39.5659 55.796C40.5713 55.216 41.5573 54.4813 42.5239 53.592C43.4906 52.7027 44.3413 51.7747 45.0759 50.808C45.8106 49.8027 46.3713 48.894 46.7579 48.082L48.1499 49.126C47.4153 50.7887 46.3519 52.432 44.9599 54.056C43.5679 55.6413 42.0213 56.956 40.3199 58C38.6186 59.0053 36.8979 59.508 35.1579 59.508ZM45.2662 59.856C43.5262 59.856 42.3276 59.276 41.6702 58.116C41.0516 56.9947 40.7422 55.7573 40.7422 54.404C40.7422 53.1667 40.9356 51.91 41.3222 50.634C41.7089 49.3193 42.2309 48.1013 42.8882 46.98C43.5842 45.8587 44.3382 44.9693 45.1502 44.312C46.0009 43.616 46.8516 43.268 47.7022 43.268C47.9729 43.268 48.2822 43.326 48.6302 43.442C49.0169 43.5193 49.2876 43.6547 49.4422 43.848C48.9782 44.428 48.4949 45.1433 47.9922 45.994C47.5282 46.8447 47.0836 47.7533 46.6582 48.72C46.2716 49.648 45.9622 50.5953 45.7302 51.562C45.4982 52.5287 45.3822 53.418 45.3822 54.23C45.3822 55.0033 45.5176 55.6413 45.7882 56.144C46.0976 56.6467 46.6196 56.898 47.3542 56.898C48.0889 56.898 48.9589 56.492 49.9642 55.68C51.0082 54.8293 51.9942 53.8627 52.9222 52.78C51.6849 51.6587 50.7956 50.4407 50.2542 49.126C49.7129 47.7727 49.4422 46.1487 49.4422 44.254C49.4422 43.442 49.6356 42.514 50.0222 41.47C50.4476 40.426 51.1049 39.5173 51.9942 38.744C52.9222 37.9707 54.1596 37.584 55.7062 37.584C57.3689 37.584 58.5289 38.048 59.1862 38.976C59.8822 39.904 60.2302 41.006 60.2302 42.282C60.2302 43.7127 59.8436 45.3173 59.0702 47.096C58.3356 48.8747 57.4462 50.5567 56.4022 52.142C56.8662 52.374 57.4076 52.49 58.0262 52.49C58.6062 52.49 59.3022 52.3547 60.1142 52.084C60.9262 51.8133 61.7189 51.3687 62.4922 50.75C63.2656 50.0927 63.8842 49.2227 64.3482 48.14L65.3922 48.894C64.5416 50.866 63.4009 52.316 61.9702 53.244C60.5782 54.1333 59.2056 54.578 57.8522 54.578C57.3496 54.578 56.8469 54.5393 56.3442 54.462C55.8416 54.346 55.3776 54.2107 54.9522 54.056C53.6376 55.6027 52.1296 56.956 50.4282 58.116C48.7269 59.276 47.0062 59.856 45.2662 59.856ZM54.4302 50.924C55.3582 49.5707 56.1509 48.1207 56.8082 46.574C57.4656 45.0273 57.7942 43.5967 57.7942 42.282C57.7942 41.3927 57.6589 40.7547 57.3882 40.368C57.1176 39.9427 56.7116 39.73 56.1702 39.73C55.4356 39.73 54.6816 40.252 53.9082 41.296C53.1349 42.34 52.7482 43.6547 52.7482 45.24C52.7482 46.052 52.8836 47.038 53.1542 48.198C53.4636 49.358 53.8889 50.2667 54.4302 50.924ZM78.5043 59.16C76.9963 59.16 75.8363 58.7733 75.0243 58C74.251 57.2653 73.8643 56.318 73.8643 55.158C73.8643 54.3847 73.9997 53.5727 74.2703 52.722C74.541 51.8327 74.8117 50.9433 75.0823 50.054C75.353 49.1647 75.4883 48.314 75.4883 47.502C75.4883 46.6513 75.2757 46.0713 74.8503 45.762C74.4637 45.414 73.9997 45.24 73.4583 45.24C72.2983 45.24 71.0997 45.7233 69.8623 46.69C68.6637 47.618 67.4843 48.7973 66.3243 50.228C65.203 51.6587 64.1397 53.1473 63.1343 54.694C62.129 56.2407 61.259 57.6327 60.5243 58.87C59.7897 58.87 59.0937 58.7347 58.4363 58.464C57.779 58.232 57.2183 57.8067 56.7543 57.188C56.793 56.9947 57.025 56.4147 57.4503 55.448C57.837 54.4427 58.2817 53.2633 58.7843 51.91C59.287 50.518 59.7317 49.068 60.1183 47.56C60.505 46.052 60.6983 44.6793 60.6983 43.442C60.969 43.1327 61.375 42.8233 61.9163 42.514C62.4963 42.2047 63.0957 42.05 63.7143 42.05C65.0677 42.05 65.7443 42.63 65.7443 43.79C65.7443 44.254 65.6477 44.95 65.4543 45.878C65.2997 46.7673 65.0677 47.792 64.7583 48.952C65.7637 47.5987 66.8657 46.3227 68.0643 45.124C69.263 43.9253 70.5003 42.9587 71.7763 42.224C73.091 41.4507 74.4057 41.064 75.7203 41.064C77.383 41.064 78.601 41.6247 79.3743 42.746C80.1863 43.8673 80.5923 45.1047 80.5923 46.458C80.5923 47.618 80.399 48.7007 80.0123 49.706C79.6257 50.7113 79.239 51.6587 78.8523 52.548C78.5043 53.4373 78.3303 54.3073 78.3303 55.158C78.3303 55.7767 78.4657 56.2213 78.7363 56.492C79.0457 56.724 79.3743 56.84 79.7223 56.84C80.6503 56.84 81.617 56.3953 82.6223 55.506C83.6277 54.6167 84.575 53.4953 85.4643 52.142C86.3923 50.75 87.2043 49.358 87.9003 47.966L88.8863 48.778C88.0743 50.6727 87.1463 52.4127 86.1023 53.998C85.097 55.5447 83.9563 56.8013 82.6803 57.768C81.443 58.696 80.051 59.16 78.5043 59.16ZM87.5904 60.668C85.8891 60.668 84.5164 60.1653 83.4724 59.16C82.4284 58.1547 81.9064 56.6273 81.9064 54.578C81.9064 52.9927 82.1964 51.0207 82.7764 48.662C83.3951 46.3033 84.1684 43.8673 85.0964 41.354C84.8257 41.2767 84.4971 41.2187 84.1104 41.18C83.7624 41.1027 83.4144 40.9867 83.0664 40.832V39.034C83.6851 39.1113 84.1877 39.1693 84.5744 39.208C84.9997 39.2467 85.4251 39.2853 85.8504 39.324C86.6624 37.2747 87.5324 35.3027 88.4604 33.408C89.4271 31.4747 90.3744 29.754 91.3024 28.246C92.2691 26.738 93.1777 25.5587 94.0284 24.708C94.8791 23.8187 95.6331 23.374 96.2904 23.374C96.6771 23.374 97.0444 23.5287 97.3924 23.838C97.7404 24.1087 97.9144 24.5147 97.9144 25.056C97.9144 25.8293 97.5084 26.9313 96.6964 28.362C95.9231 29.7927 94.9564 31.4747 93.7964 33.408C92.6364 35.3027 91.5151 37.3327 90.4324 39.498C90.7417 39.498 91.0511 39.498 91.3604 39.498C91.6697 39.498 91.9597 39.498 92.2304 39.498C93.9317 39.498 95.4591 39.4787 96.8124 39.44C98.2044 39.3627 99.6157 39.2467 101.046 39.092V41.006C98.9197 41.1993 96.9671 41.354 95.1884 41.47C93.4097 41.586 91.7084 41.6633 90.0844 41.702C89.9684 41.702 89.8524 41.702 89.7364 41.702C89.6204 41.702 89.5044 41.702 89.3884 41.702C88.5764 43.5967 87.8611 45.5493 87.2424 47.56C86.6624 49.532 86.3724 51.4653 86.3724 53.36C86.3724 54.9453 86.6237 56.0667 87.1264 56.724C87.6291 57.3813 88.4217 57.71 89.5044 57.71C91.4377 57.71 93.4097 56.84 95.4204 55.1C97.4697 53.3213 99.2484 50.924 100.756 47.908L101.568 48.488C100.563 50.7693 99.3064 52.838 97.7984 54.694C96.3291 56.55 94.7244 58 92.9844 59.044C91.2444 60.1267 89.4464 60.668 87.5904 60.668ZM101.689 60.552C99.2147 60.552 97.3007 59.8753 95.9474 58.522C94.6327 57.2073 93.9754 55.5447 93.9754 53.534C93.9754 51.8327 94.4007 50.0347 95.2514 48.14C96.1407 46.2067 97.32 44.4087 98.7894 42.746C100.259 41.0447 101.883 39.672 103.661 38.628C105.44 37.584 107.219 37.062 108.997 37.062C110.003 37.062 110.95 37.3327 111.839 37.874C112.767 38.3767 113.231 39.4013 113.231 40.948C113.231 42.4173 112.806 43.79 111.955 45.066C111.105 46.342 109.964 47.4827 108.533 48.488C107.103 49.4933 105.517 50.3247 103.777 50.982C102.076 51.6007 100.355 52.0067 98.6154 52.2C98.5767 52.3547 98.538 52.5287 98.4994 52.722C98.4994 52.8767 98.4994 53.1473 98.4994 53.534C98.4994 53.7273 98.5187 54.0753 98.5574 54.578C98.6347 55.042 98.8087 55.5447 99.0794 56.086C99.35 56.6273 99.7947 57.0913 100.413 57.478C101.032 57.8647 101.883 58.058 102.965 58.058C104.589 58.058 106.213 57.6133 107.837 56.724C109.5 55.796 111.047 54.578 112.477 53.07C113.947 51.562 115.165 49.88 116.131 48.024L117.291 48.952C116.247 51.272 114.894 53.302 113.231 55.042C111.607 56.782 109.79 58.1353 107.779 59.102C105.807 60.0687 103.777 60.552 101.689 60.552ZM99.2534 50.054C100.259 49.938 101.38 49.59 102.617 49.01C103.855 48.43 105.034 47.6953 106.155 46.806C107.315 45.9167 108.263 44.95 108.997 43.906C109.732 42.8233 110.099 41.7407 110.099 40.658C110.099 40.2327 110.022 39.9427 109.867 39.788C109.713 39.6333 109.461 39.556 109.113 39.556C108.224 39.556 107.296 39.8847 106.329 40.542C105.363 41.1607 104.415 41.992 103.487 43.036C102.559 44.0413 101.728 45.1627 100.993 46.4C100.259 47.6373 99.6787 48.8553 99.2534 50.054ZM130.215 59.16C128.707 59.16 127.547 58.7733 126.735 58C125.962 57.2653 125.575 56.318 125.575 55.158C125.575 54.3847 125.71 53.5727 125.981 52.722C126.252 51.8327 126.522 50.9433 126.793 50.054C127.064 49.1647 127.199 48.314 127.199 47.502C127.199 46.6513 126.986 46.0713 126.561 45.762C126.174 45.414 125.71 45.24 125.169 45.24C124.009 45.24 122.81 45.7233 121.573 46.69C120.374 47.618 119.195 48.7973 118.035 50.228C116.914 51.6587 115.85 53.1473 114.845 54.694C113.84 56.2407 112.97 57.6327 112.235 58.87C111.5 58.87 110.804 58.7347 110.147 58.464C109.49 58.232 108.929 57.8067 108.465 57.188C108.504 56.9947 108.736 56.4147 109.161 55.448C109.548 54.4427 109.992 53.2633 110.495 51.91C110.998 50.518 111.442 49.068 111.829 47.56C112.216 46.052 112.409 44.6793 112.409 43.442C112.68 43.1327 113.086 42.8233 113.627 42.514C114.207 42.2047 114.806 42.05 115.425 42.05C116.778 42.05 117.455 42.63 117.455 43.79C117.455 44.254 117.358 44.95 117.165 45.878C117.01 46.7673 116.778 47.792 116.469 48.952C117.474 47.5987 118.576 46.3227 119.775 45.124C120.974 43.9253 122.211 42.9587 123.487 42.224C124.802 41.4507 126.116 41.064 127.431 41.064C129.094 41.064 130.312 41.6247 131.085 42.746C131.897 43.8673 132.303 45.1047 132.303 46.458C132.303 47.618 132.11 48.7007 131.723 49.706C131.336 50.7113 130.95 51.6587 130.563 52.548C130.215 53.4373 130.041 54.3073 130.041 55.158C130.041 55.7767 130.176 56.2213 130.447 56.492C130.756 56.724 131.085 56.84 131.433 56.84C132.361 56.84 133.328 56.3953 134.333 55.506C135.338 54.6167 136.286 53.4953 137.175 52.142C138.103 50.75 138.915 49.358 139.611 47.966L140.597 48.778C139.785 50.6727 138.857 52.4127 137.813 53.998C136.808 55.5447 135.667 56.8013 134.391 57.768C133.154 58.696 131.762 59.16 130.215 59.16ZM138.025 59.74C137.29 59.74 136.536 59.5467 135.763 59.16C135.028 58.812 134.41 58.2513 133.907 57.478C133.366 56.7047 133.095 55.7187 133.095 54.52C133.095 53.244 133.404 51.8133 134.023 50.228C134.642 48.6427 135.473 47.0573 136.517 45.472C137.6 43.8867 138.837 42.4367 140.229 41.122C141.66 39.8073 143.168 38.744 144.753 37.932C146.338 37.12 147.943 36.714 149.567 36.714C150.456 36.714 151.152 36.8687 151.655 37.178C152.158 37.4487 152.409 37.9127 152.409 38.57C152.409 38.7633 152.37 38.9953 152.293 39.266C152.216 39.498 152.022 39.7107 151.713 39.904C151.558 39.672 151.288 39.5173 150.901 39.44C150.514 39.324 150.108 39.266 149.683 39.266C148.407 39.266 147.189 39.6333 146.029 40.368C144.869 41.064 143.806 41.9727 142.839 43.094C141.872 44.2153 141.022 45.4333 140.287 46.748C139.591 48.0627 139.05 49.3387 138.663 50.576C138.276 51.7747 138.083 52.8187 138.083 53.708C138.083 54.4427 138.238 55.042 138.547 55.506C138.856 55.9313 139.32 56.144 139.939 56.144C140.983 56.144 142.22 55.5447 143.651 54.346C145.12 53.1087 146.609 51.3493 148.117 49.068C149.664 46.748 151.056 43.9833 152.293 40.774C153.144 38.57 154.033 36.3273 154.961 34.046C155.889 31.726 156.817 29.5027 157.745 27.376C158.673 25.2493 159.582 23.3547 160.471 21.692C161.399 20.0293 162.269 18.7147 163.081 17.748C163.932 16.7427 164.705 16.24 165.401 16.24C165.826 16.24 166.194 16.414 166.503 16.762C166.851 17.0713 167.025 17.4773 167.025 17.98C167.025 18.6373 166.696 19.7007 166.039 21.17C165.42 22.6007 164.608 24.3213 163.603 26.332C162.636 28.3427 161.573 30.5273 160.413 32.886C159.292 35.206 158.228 37.6033 157.223 40.078C156.256 42.514 155.444 44.9307 154.787 47.328C154.168 49.6867 153.859 51.91 153.859 53.998C153.859 54.926 153.936 55.564 154.091 55.912C154.284 56.2213 154.594 56.376 155.019 56.376C155.87 56.376 156.817 56.0473 157.861 55.39C158.905 54.7327 159.968 53.766 161.051 52.49C162.134 51.1753 163.12 49.6093 164.009 47.792L165.111 48.72C164.26 50.8467 163.178 52.722 161.863 54.346C160.548 55.97 159.137 57.2267 157.629 58.116C156.121 59.044 154.632 59.508 153.163 59.508C151.578 59.508 150.476 59.0053 149.857 58C149.238 56.9947 148.929 55.8153 148.929 54.462C148.929 53.8433 148.968 53.2247 149.045 52.606C149.161 51.9487 149.277 51.3107 149.393 50.692C148.194 52.432 146.918 53.998 145.565 55.39C144.25 56.7433 142.955 57.8067 141.679 58.58C140.403 59.3533 139.185 59.74 138.025 59.74ZM183.96 63.046C181.021 63.046 178.604 62.35 176.71 60.958C174.854 59.566 173.481 57.768 172.592 55.564C171.741 53.36 171.316 51.0787 171.316 48.72C171.316 45.6653 171.78 42.6107 172.708 39.556C173.636 36.4627 174.912 33.524 176.536 30.74C178.198 27.956 180.074 25.4813 182.162 23.316C184.25 21.1507 186.473 19.4493 188.832 18.212C191.229 16.936 193.607 16.298 195.966 16.298C197.667 16.298 199.098 16.704 200.258 17.516C201.418 18.2893 201.998 19.6427 201.998 21.576C201.998 22.736 201.785 24.0313 201.36 25.462C200.973 26.8927 200.432 28.2847 199.736 29.638C199.078 30.9527 198.324 32.0353 197.474 32.886C196.623 33.7367 195.753 34.162 194.864 34.162C194.477 34.162 194.071 34.0267 193.646 33.756C193.22 33.4853 192.834 33.0213 192.486 32.364C193.066 31.7067 193.723 30.914 194.458 29.986C195.192 29.0193 195.888 28.014 196.546 26.97C197.203 25.8873 197.744 24.8433 198.17 23.838C198.595 22.794 198.808 21.8853 198.808 21.112C198.808 20.416 198.614 19.8747 198.228 19.488C197.841 19.0627 197.164 18.85 196.198 18.85C194.496 18.85 192.737 19.488 190.92 20.764C189.141 22.04 187.42 23.7607 185.758 25.926C184.095 28.0527 182.587 30.45 181.234 33.118C179.919 35.7473 178.875 38.4733 178.102 41.296C177.328 44.08 176.942 46.7287 176.942 49.242C176.942 51.098 177.212 52.8767 177.754 54.578C178.334 56.2407 179.242 57.594 180.48 58.638C181.717 59.7207 183.341 60.262 185.352 60.262C187.44 60.262 189.508 59.682 191.558 58.522C193.646 57.362 195.54 55.8347 197.242 53.94C198.982 52.0453 200.374 50.0153 201.418 47.85L202.926 48.836C201.572 51.4267 199.948 53.8047 198.054 55.97C196.159 58.0967 194.013 59.798 191.616 61.074C189.257 62.3887 186.705 63.046 183.96 63.046ZM199.234 60.726C197.958 60.726 196.856 60.3007 195.928 59.45C194.961 58.5993 194.478 57.3233 194.478 55.622C194.478 54.2687 194.787 52.7993 195.406 51.214C196.024 49.6287 196.875 48.0627 197.958 46.516C199.04 44.9693 200.278 43.5773 201.67 42.34C203.062 41.064 204.55 40.0393 206.136 39.266C207.721 38.4927 209.306 38.106 210.892 38.106C212.554 38.106 213.966 38.5313 215.126 39.382C216.286 40.2327 216.866 41.354 216.866 42.746C216.866 43.79 216.498 44.544 215.764 45.008C215.029 45.472 214.159 45.6073 213.154 45.414C213.231 45.066 213.289 44.718 213.328 44.37C213.405 44.022 213.444 43.6547 213.444 43.268C213.444 42.4947 213.289 41.7987 212.98 41.18C212.67 40.5613 212.013 40.252 211.008 40.252C209.925 40.252 208.823 40.6193 207.702 41.354C206.58 42.0887 205.498 43.0553 204.454 44.254C203.448 45.414 202.54 46.7093 201.728 48.14C200.916 49.532 200.278 50.9047 199.814 52.258C199.35 53.6113 199.118 54.8293 199.118 55.912C199.118 57.1493 199.562 57.768 200.452 57.768C201.341 57.768 202.327 57.3427 203.41 56.492C204.492 55.6027 205.575 54.5007 206.658 53.186C207.779 51.8713 208.842 50.5373 209.848 49.184C210.853 47.792 211.723 46.6127 212.458 45.646C212.574 45.4527 212.728 45.356 212.922 45.356C213.076 45.3947 213.366 45.4913 213.792 45.646C214.256 45.762 214.681 45.9553 215.068 46.226C215.454 46.4967 215.648 46.8447 215.648 47.27C215.648 47.6567 215.474 48.1593 215.126 48.778C214.816 49.358 214.43 50.0153 213.966 50.75C213.54 51.446 213.154 52.1613 212.806 52.896C212.496 53.592 212.342 54.2687 212.342 54.926C212.342 55.4287 212.477 55.912 212.748 56.376C213.018 56.8013 213.463 57.014 214.082 57.014C215.01 57.014 216.305 56.3373 217.968 54.984C219.669 53.592 221.39 51.2527 223.13 47.966L224.232 49.068C223.304 51.156 222.182 53.012 220.868 54.636C219.592 56.2213 218.238 57.4587 216.808 58.348C215.377 59.276 213.927 59.74 212.458 59.74C210.872 59.74 209.693 59.2373 208.92 58.232C208.146 57.2267 207.721 56.144 207.644 54.984C207.644 54.9067 207.644 54.8487 207.644 54.81C207.644 54.7713 207.644 54.7327 207.644 54.694C206.097 56.55 204.666 58.0193 203.352 59.102C202.076 60.1847 200.703 60.726 199.234 60.726ZM217.639 74.24C217.214 74.24 216.711 74.1047 216.131 73.834C215.512 73.5633 214.99 73.022 214.565 72.21C214.101 71.4367 213.869 70.2573 213.869 68.672C213.869 67.0093 214.159 64.8247 214.739 62.118C215.28 59.45 216.054 56.492 217.059 53.244C218.026 49.9573 219.166 46.5933 220.481 43.152C221.834 39.7107 223.265 36.4047 224.773 33.234C226.32 30.0247 227.905 27.144 229.529 24.592C231.192 22.04 232.835 20.01 234.459 18.502C236.083 16.994 237.649 16.24 239.157 16.24C240.162 16.24 240.82 16.5493 241.129 17.168C241.438 17.748 241.593 18.4247 241.593 19.198C241.593 20.8607 241.129 22.678 240.201 24.65C239.312 26.622 238.113 28.6133 236.605 30.624C235.097 32.596 233.396 34.4713 231.501 36.25C229.645 38.0287 227.731 39.556 225.759 40.832C225.604 41.2187 225.45 41.6053 225.295 41.992C225.14 42.3787 224.986 42.7653 224.831 43.152C225.256 43.3067 225.585 43.5773 225.817 43.964C226.088 44.3507 226.242 44.7567 226.281 45.182C226.59 46.8447 226.9 48.3333 227.209 49.648C227.518 50.924 227.982 51.9293 228.601 52.664C229.258 53.3987 230.186 53.766 231.385 53.766C232.738 53.766 233.937 53.2633 234.981 52.258C236.025 51.2527 237.088 49.8413 238.171 48.024L239.447 48.952C238.21 51.4267 236.818 53.244 235.271 54.404C233.724 55.5253 232.332 56.086 231.095 56.086C230.438 56.086 229.742 55.9507 229.007 55.68C228.311 55.4093 227.634 55.0227 226.977 54.52C226.938 56.9173 226.648 59.276 226.107 61.596C225.604 63.9547 224.908 66.0813 224.019 67.976C223.13 69.8707 222.124 71.3787 221.003 72.5C219.92 73.66 218.799 74.24 217.639 74.24ZM219.263 70.644C219.688 70.644 220.133 70.2767 220.597 69.542C221.1 68.8073 221.583 67.8407 222.047 66.642C222.511 65.4433 222.936 64.1093 223.323 62.64C223.71 61.2093 224.019 59.7787 224.251 58.348C224.483 56.956 224.599 55.68 224.599 54.52C224.599 53.3987 224.464 52.4127 224.193 51.562C223.961 50.6727 223.536 49.6867 222.917 48.604C222.028 51.272 221.235 53.8433 220.539 56.318C219.843 58.7927 219.302 61.0353 218.915 63.046C218.528 65.0953 218.335 66.7967 218.335 68.15C218.335 69.8127 218.644 70.644 219.263 70.644ZM227.441 36.772C229.8 34.568 231.81 32.422 233.473 30.334C235.136 28.246 236.392 26.4093 237.243 24.824C238.132 23.2 238.577 22.0593 238.577 21.402C238.577 21.0927 238.422 20.938 238.113 20.938C237.185 20.938 236.122 21.6533 234.923 23.084C233.724 24.476 232.487 26.3707 231.211 28.768C229.935 31.1653 228.678 33.8333 227.441 36.772ZM239.51 60.552C237.035 60.552 235.121 59.8753 233.768 58.522C232.453 57.2073 231.796 55.5447 231.796 53.534C231.796 51.8327 232.221 50.0347 233.072 48.14C233.961 46.2067 235.14 44.4087 236.61 42.746C238.079 41.0447 239.703 39.672 241.482 38.628C243.26 37.584 245.039 37.062 246.818 37.062C247.823 37.062 248.77 37.3327 249.66 37.874C250.588 38.3767 251.052 39.4013 251.052 40.948C251.052 42.4173 250.626 43.79 249.776 45.066C248.925 46.342 247.784 47.4827 246.354 48.488C244.923 49.4933 243.338 50.3247 241.598 50.982C239.896 51.6007 238.176 52.0067 236.436 52.2C236.397 52.3547 236.358 52.5287 236.32 52.722C236.32 52.8767 236.32 53.1473 236.32 53.534C236.32 53.7273 236.339 54.0753 236.378 54.578C236.455 55.042 236.629 55.5447 236.9 56.086C237.17 56.6273 237.615 57.0913 238.234 57.478C238.852 57.8647 239.703 58.058 240.786 58.058C242.41 58.058 244.034 57.6133 245.658 56.724C247.32 55.796 248.867 54.578 250.298 53.07C251.767 51.562 252.985 49.88 253.952 48.024L255.112 48.952C254.068 51.272 252.714 53.302 251.052 55.042C249.428 56.782 247.61 58.1353 245.6 59.102C243.628 60.0687 241.598 60.552 239.51 60.552ZM237.074 50.054C238.079 49.938 239.2 49.59 240.438 49.01C241.675 48.43 242.854 47.6953 243.976 46.806C245.136 45.9167 246.083 44.95 246.818 43.906C247.552 42.8233 247.92 41.7407 247.92 40.658C247.92 40.2327 247.842 39.9427 247.688 39.788C247.533 39.6333 247.282 39.556 246.934 39.556C246.044 39.556 245.116 39.8847 244.15 40.542C243.183 41.1607 242.236 41.992 241.308 43.036C240.38 44.0413 239.548 45.1627 238.814 46.4C238.079 47.6373 237.499 48.8553 237.074 50.054Z" fill="black"/>
</svg>
